<?xml version="1.0" encoding="utf-8"?>
<!-- Generator: Adobe Illustrator 27.3.1, SVG Export Plug-In . SVG Version: 6.00 Build 0)  -->
<svg version="1.1" id="Layer_1" xmlns="http://www.w3.org/2000/svg" xmlns:xlink="http://www.w3.org/1999/xlink" x="0px" y="0px"
	 viewBox="0 0 937.33 845.33" style="enable-background:new 0 0 937.33 845.33;" xml:space="preserve">
<style type="text/css">
	.st0{fill:#696969;}
	.st1{fill:#7E9429;}
	.st2{fill:#FFFFFF;}
</style>
<g>
	<path class="st0" d="M654.56,724.71c0-2.75,0-5.51,0-8.26c0-15.96-0.01-31.92-0.01-47.88c0-4.57,3.1-6.73,7.31-4.81
		c1.04,0.48,1.99,2.25,2.08,3.48c0.27,3.91,0.12,7.86,0.12,11.79c0,36.2,0,72.4,0,108.6c0,4.66-0.92,5.45-5.49,5.24
		c-2.88-0.13-4.16-1.46-4.04-4.38c0.13-2.94,0.03-5.89,0.03-9.45c-0.96,0.67-1.42,0.83-1.62,1.15
		c-9.4,15.05-31.77,18.16-45.98,11.46c-16.6-7.82-24.57-21.55-25.43-39.46c-1.01-21.08,11.4-39.11,30.23-44.76
		c16.27-4.88,32.24,1.34,40.89,15.91c0.33,0.55,0.71,1.06,1.07,1.59C654,724.86,654.28,724.79,654.56,724.71z M591.01,750.53
		c-0.03,8.61,2.58,16.33,7.85,23.15c10.66,13.77,29.07,16.16,42.76,5.55c14.76-11.44,18.03-33.82,7.25-49.6
		c-7.39-10.81-19.64-16.35-30.98-13.99C601.93,718.96,591.03,733.12,591.01,750.53z"/>
	<path class="st0" d="M321.09,720.59c0.98-1.22,1.92-2.46,2.93-3.65c12.27-14.41,36.95-16.02,52.53-3.45
		c24,19.37,22.11,58.11-3.69,74.82c-15.48,10.02-40.21,8.3-50.94-12.14c-0.2-0.39-0.53-0.72-1.35-1.82
		c-0.11,1.9-0.23,3.07-0.23,4.23c-0.02,14.45-0.02,28.9-0.03,43.35c-0.01,4.17-0.83,5.03-4.71,5.07c-4.07,0.04-4.88-0.68-4.88-4.83
		c-0.02-36.65-0.03-73.29-0.01-109.94c0-4.45,0.74-5.13,4.98-5.08c3.7,0.05,4.61,1.06,4.62,5.21c0.01,2.64,0,5.29,0,7.93
		C320.57,720.39,320.83,720.49,321.09,720.59z M319.61,749.4c0,7.26,1.63,13.24,5.3,19.46c11.01,18.68,35.07,21.46,49.42,5.71
		c12.59-13.83,12.64-36.06,0.09-50.09c-8.91-9.96-22.1-13.04-34.04-7.96C327.81,721.88,319.61,734.86,319.61,749.4z"/>
	<path class="st1" d="M61.28,753.35c-11.1,0-22.19,0.08-33.29-0.05c-2.85-0.03-3.64,0.84-3.11,3.63
		c5.2,27.55,36.66,36.81,56.14,22.41c0.56-0.41,1.15-0.78,1.68-1.22c1.93-1.58,3.77-2.29,5.55,0.23c1.66,2.35,2.16,4.47-0.43,6.62
		c-6.22,5.18-13.39,8.09-21.32,9.26c-24.71,3.64-47.31-13.51-50.43-38.3c-2.71-21.51,10.22-44.31,34.67-49.1
		c18.89-3.7,35.66,5.6,44.21,22.02c3.14,6.03,4.75,12.51,4.73,19.34c-0.01,4.11-0.9,5.11-5.13,5.13
		c-11.1,0.06-22.19,0.02-33.29,0.02C61.28,753.34,61.28,753.35,61.28,753.35z M24.73,745.07c1.16,0.18,1.82,0.38,2.49,0.38
		c20.24,0.01,40.48-0.03,60.72,0.05c2.94,0.01,3.25-1.35,2.73-3.7c-5.27-23.84-31.83-35.55-52.39-20.07
		C30.65,727.47,26.22,735.2,24.73,745.07z"/>
	<path class="st0" d="M520.99,795.04c-24.78,0.15-44.71-19.68-44.83-44.58c-0.11-24.27,19.96-44.51,44.21-44.59
		c24.61-0.08,44.85,19.79,44.98,44.15C565.48,774.91,545.79,794.89,520.99,795.04z M520.86,785.77c19.8-0.12,35.8-15.98,35.68-35.36
		c-0.12-19.74-16.62-35.97-36.31-35.73c-19.25,0.23-34.96,16.63-34.84,36.36C485.51,770.27,501.47,785.89,520.86,785.77z"/>
	<path class="st1" d="M244.71,706.26c24.69,0.04,44.29,19.59,44.32,44.21c0.02,24.87-19.94,44.48-45.28,44.46
		c-23.74-0.01-43.34-20.2-43.39-44.56C200.29,725.48,220.92,705.74,244.71,706.26z M280.47,750.41
		c-0.01-19.62-16.15-35.86-35.64-35.88c-19.72-0.02-35.88,16.44-35.83,36.49c0.05,19.06,16.55,35.22,35.75,35.02
		C264.79,785.84,280.48,770.2,280.47,750.41z"/>
	<path class="st0" d="M754.2,780.39c-0.72,0.86-1.39,1.61-2.01,2.39c-14.46,18.31-44.35,15.63-55.41-4.94
		c-3.19-5.93-4.81-12.21-4.81-18.93c0-15.49,0-30.98,0.01-46.47c0-3.89,0.81-4.49,4.67-4.71c3.49-0.21,4.35,1.41,4.33,4.55
		c-0.09,15.14-0.08,30.29-0.02,45.43c0.04,10.37,3.56,19.11,12.86,24.55c8.73,5.11,17.89,5.29,26.82,0.65
		c9.28-4.82,14.2-12.79,14.34-23.25c0.21-15.72,0.06-31.44,0.07-47.17c0-4.23,3.76-6.55,7.38-4.29c0.94,0.59,1.44,2.53,1.45,3.86
		c0.12,10.63,0.07,21.27,0.07,31.91c0,14.68-0.03,29.36,0.02,44.05c0.01,2.83-0.22,5.1-3.95,5.02c-3.75-0.08-4.65-0.88-4.84-5.06
		c-0.11-2.3-0.19-4.61-0.3-6.91C754.88,780.98,754.74,780.91,754.2,780.39z"/>
	<path class="st0" d="M828.82,705.64c11.83-0.1,21.37,4.34,29.75,11.66c2.65,2.31,2.45,3.39-0.7,7.21
		c-1.96,2.38-3.39,1.35-5.14-0.21c-9.69-8.62-20.78-11.89-33.4-7.98c-16.25,5.05-25.99,21.65-23.39,39.45
		c2.74,18.74,18.02,31.3,36.4,29.71c7.9-0.68,14.47-4.51,20.39-9.56c3.59-3.06,4.23-2.87,7.14,0.72c2.03,2.51,0.97,4.1-0.94,5.85
		c-12.63,11.6-27.24,15.67-43.59,10.13c-16.62-5.63-25.97-17.99-28.68-35.14c-3.16-20.05,5.82-38.27,22.91-47.27
		C815.73,706.98,822.35,705.5,828.82,705.64z"/>
	<path class="st1" d="M158.28,785.96c9.38,0,16.99-4.05,23.9-9.85c3.38-2.84,4.29-2.62,6.93,0.77c1.58,2.03,1.1,3.45-0.53,5.06
		c-22.5,22.14-57.32,14.28-68.98-12.63c-8.78-20.26-2.9-43.35,13.7-55.46c16.45-12,40.13-10.41,54.54,3.66
		c2.17,2.12,1.89,3.84-0.73,6.85c-1.79,2.05-2.99,1.48-4.81-0.12c-15.24-13.41-35.66-12.81-48.43,1.28
		c-17.68,19.52-8.61,52.83,16.2,59.33C152.73,785.53,155.54,785.6,158.28,785.96z"/>
	<path class="st0" d="M888.53,748.64c0-9.59-0.08-19.18,0.05-28.77c0.03-2.6-0.81-3.49-3.38-3.33c-2.99,0.18-6.01-0.01-9.01,0.02
		c-3.01,0.03-3.24-1.95-3.2-4.21c0.04-2.21-0.31-4.65,3.04-4.69c3.12-0.04,6.24-0.14,9.36-0.03c2.39,0.08,3.23-0.83,3.19-3.24
		c-0.11-7.05-0.05-14.1-0.01-21.15c0.03-3.79,4.75-6.74,7.94-4.79c0.89,0.55,1.44,2.3,1.46,3.52c0.13,7.16,0.24,14.33-0.01,21.49
		c-0.12,3.45,1.1,4.45,4.36,4.2c3.33-0.25,6.7-0.02,10.05-0.12c3.01-0.09,4.43,1.06,4.36,4.27c-0.06,2.99-0.68,4.92-4.23,4.78
		c-3.92-0.15-7.86,0.06-11.78-0.04c-1.96-0.05-2.69,0.72-2.68,2.62c0.09,18.49,0,36.98,0.3,55.46c0.12,7.23,2.54,9.3,9.7,10.01
		c1.03,0.1,2.08,0.15,3.12,0.08c3.24-0.19,4.6,1.3,4.61,4.53c0.01,3.2-1.24,4.78-4.53,4.56c-3.57-0.24-7.18-0.16-10.7-0.69
		c-5.85-0.89-9.76-4.46-10.76-10.26c-0.88-5.08-1.04-10.32-1.2-15.49C888.39,761.13,888.53,754.88,888.53,748.64z"/>
	<path class="st0" d="M425.28,719.5c3.54-7.12,9.31-11.2,16.87-12.66c7.86-1.51,15.13,0.26,21.83,4.52
		c2.91,1.85,1.84,4.04,0.47,6.23c-1.35,2.15-2.9,3.65-5.64,1.98c-18.1-11.05-33.71,4.51-34.3,20.84
		c-0.5,13.97-0.15,27.98-0.18,41.97c0,1.85,0.01,3.7,0,5.55c-0.04,4.6-0.64,5.03-5.25,5.11c-3.16,0.05-4.28-1.23-4.28-4.32
		c0.06-25.44,0.02-50.87,0.04-76.31c0-3.97,0.91-4.83,4.59-4.83c3.68,0,4.62,0.89,4.76,4.72c0.08,2.25,0.02,4.51,0.02,6.77
		C424.56,719.21,424.92,719.36,425.28,719.5z"/>
	<circle class="st2" cx="466.24" cy="301.01" r="270.74"/>
	<g>
		<path class="st1" d="M745.93,300.03c0.72,152.94-124.14,280.47-280.85,280.63c-153.64,0.16-279.82-125.29-280.53-279
			c-0.72-155.4,124.38-280.65,277.52-282.29C619.89,17.68,746.66,145.66,745.93,300.03z M542.54,226.45
			c0.24,0.18,0.49,0.36,0.73,0.54c-0.36,0.28-0.7,0.6-1.09,0.85c-14.37,9.33-26.56,21.05-37.69,33.99
			c-9.49,11.03-16.66,23.56-23.85,36.08c-7.74,13.48-11.53,27.8-9.04,43.55c3.86,24.45,24.45,34.36,41.48,32.16
			c7.74-1,14.72-0.79,22.3,0.3c14.05,2.03,27.18-2.19,39.63-8.65c1.5-0.78,3.4-0.95,5.14-1.05c4.14-0.23,8.3-0.08,12.43-0.42
			c3.11-0.26,6.18-1.05,9.08-1.57c0,5.79,0.11,10.97-0.12,16.14c-0.04,0.77-1.65,2.04-2.61,2.11c-11.05,0.84-22.17,1.04-33.16,2.29
			c-21.02,2.38-41.02,8.19-58.65,20.39c-20.35,14.07-31.81,33.25-31.81,58.34c0,16.06,5.03,30.77,14.78,43.57
			c16.26,21.34,37.87,31.26,64.69,28.58c18.59-1.86,35.56-8.92,51.65-18.09c28.16-16.04,51.32-37.69,70.43-63.73
			c16-21.8,28.05-45.68,36.17-71.44c6.48-20.56,10.31-41.62,11.85-63.19c1.4-19.49,0.93-38.86-1.94-58.1
			c-5.65-37.8-19.14-72.68-40.45-104.48c-23.06-34.41-52.62-61.78-88.71-82.08c-27.3-15.35-56.51-25.14-87.51-29.42
			c-21.74-3.01-43.54-2.78-65.38-0.59c-29.45,2.95-57.8,9.99-84.81,22.11c-40.32,18.08-73.52,45-99.35,80.91
			c-26.91,37.39-42.6,79.19-48.04,124.78c-3.02,25.35-2.44,50.72,1.85,76.01c4.03,23.77,11.1,46.5,21.61,68.13
			c16.53,33.99,40.05,62.25,70.61,84.54c18.41,13.43,38.23,24.41,59.9,31.45c8.67,2.82,18.09,3.63,27.25,4.51
			c11.7,1.12,23.06-0.77,33.52-6.58c12.86-7.13,21.72-17.87,27.33-31.23c9.4-22.37,8.67-44.03-7.27-63.25
			c-19.78-23.86-45.73-36.11-76.63-37.83c-7.46-0.42-7.46-0.3-7.34-7.83c0-0.1,0.11-0.2,0.37-0.62c1.24-0.07,2.71-0.24,4.17-0.24
			c8.68-0.01,17.44,0.07,25.68-3c3.6-1.34,5.8-0.49,8.57,1.68c9.91,7.75,20.73,13.87,33.03,17.05c11.2,2.9,19.57-1.42,23.11-12.41
			c1.34-4.14,1.99-8.55,2.58-12.88c2.13-15.81,0.92-31.37-4.14-46.54c-1.59-4.78-3.62-9.41-5.44-14.09
			c4.86-2.7,9.62-5.27,14.31-7.97c3.64-2.1,4.05-3.56,2.41-7.4c-9.84-22.94-24.22-42.79-42-60.11c-8.9-8.67-18.79-16.33-27.72-24.01
			c-1.31-5.44-2.6-10.77-3.88-16.08c3.13-1.03,4.74,0.53,6.43,2.77c9.81,13.05,22.22,20.78,39.27,18.24
			c4.41-0.66,8.74-1.88,13.47-2.93c1.06,5.88,2.01,11.77,3.21,17.62c1.67,8.14,2.92,16.43,5.44,24.31c4.16,13,15.05,15.98,25.42,7.2
			c3.92-3.32,7.43-7.3,10.5-11.44c9.94-13.4,12.94-29.14,14.6-45.27c0.21-2.07,0.44-4.13,0.65-6.19c0.35-0.06,0.69-0.11,1.04-0.17
			c0.9,1.81,2.12,3.53,2.63,5.45c1.13,4.23,1.75,8.6,2.89,12.84c0.43,1.6,1.44,3.9,2.64,4.23c1.47,0.4,3.68-0.57,5.1-1.59
			c2.89-2.07,5.52-4.54,8.18-6.92c2.23-1.99,4.61-3.89,6.46-6.21c2.09-2.62,4.45-2.81,7.46-2.05
			C544.78,216.59,543.66,221.52,542.54,226.45z"/>
		<path class="st1" d="M584.24,356.9c2.33-5.55,4.59-10.22,6.25-15.11c1.72-5.06,2.35-10.32,1.07-15.71
			c-2.64-11.1-13.13-14.87-22.14-7.88c-4.8,3.72-7.09,8.72-7.41,14.68c-0.44,8.23,1.97,15.74,5.98,22.81
			c0.5,0.89,1.06,1.75,1.57,2.6c-5.79,5.21-31.51,11.24-38.69,6.21c1.33-4.14,3.13-8.09,3.81-12.22c1.28-7.76-0.98-14.7-6.73-20.22
			c-4.81-4.61-11.37-3.78-14.13,2.19c-2.05,4.44-3.45,9.32-4.26,14.15c-1.06,6.32,1.62,11.73,6.9,17.11
			c-3.83,0.15-6.77,0.66-9.6,0.3c-16.58-2.11-27.04-13.19-27.68-29.91c-0.23-5.91,1.03-11.9,1.76-17.83
			c0.34-2.75,1.79-3.44,4.62-2.55c11.85,3.73,23.97,5.95,36.46,5.81c22.85-0.26,41.78-9.58,58.01-25.1c3-2.87,5.48-6.32,8.64-8.96
			c1.77-1.47,4.41-2.4,6.75-2.6c12.74-1.08,25.25-2.96,36.87-8.7c11.66-5.76,19.68-14.72,23.79-27.11c1.86-5.6,0.86-7.49-5.06-8.09
			c-14.17-1.43-27.96-0.52-40.48,7.38c-5.72,3.61-9.84,8.7-13.7,14.06c-2.83,3.94-5.59,7.94-8.21,12.02
			c-1.52,2.37-3.39,3.57-6.27,3.35c-8.52-0.64-17.06-1.13-25.57-1.87c-0.77-0.07-2.15-1.65-2.02-2.3
			c2.73-14.37-10.65-24.5-23.31-25.38c-0.55-0.04-1.1-0.13-2.81-0.33c5.45-4.17,10.29-7.59,14.81-11.41
			c4.62-3.89,8.68-4.72,14.83-2.14c16.87,7.05,33.58,4.44,49.37-4.04c4.82-2.59,9.27-6.08,13.37-9.74c3.33-2.97,2.45-5.56-1.75-7.21
			c-12.66-4.98-25.63-4.87-38.51-1.46c-9.66,2.55-19.08,6-28.81,9.12c0.98-2.92,1.91-6.33,3.34-9.51c0.41-0.92,2.2-1.45,3.46-1.72
			c10.52-2.26,20.49-5.64,28.6-13.14c4.32-4,7.49-8.77,9.64-14.23c1.65-4.19,0.03-6.41-4.54-6.4c-18.51,0.05-32.49,7.83-41.26,24.32
			c-1.28,2.41-2.69,3.97-6.12,3.12c0.66-1.4,1.24-2.7,1.87-3.97c6.82-13.79,11.02-28.16,9.77-43.77
			c-0.92-11.59-5.16-21.97-11.48-31.57c-1.78-2.7-4.21-3.04-6.86-1.19c-12.92,9.05-20.43,21.36-22.39,37.07
			c-2.08,16.68,1.54,32.41,7.93,47.64c0.79,1.88,3.12,3.12,5.06,4.97c-0.41,0.33-1.42,1.14-2.44,1.95
			c-1.08,0.85-2.18,1.68-3.67,2.84c-0.36-1.16-0.58-2.09-0.93-2.97c-2.42-5.97-4.5-12.12-7.43-17.83c-2.33-4.54-5.93-6.12-8.91-4.99
			c-4.1,1.55-4.23,5.28-4.72,8.88c-1.35,9.94-2.24,19.98-4.4,29.75c-2.5,11.28-7.29,21.7-16.18,29.64c-1.88,1.68-4.02,3.1-6.16,4.46
			c-2.77,1.76-4.89,1.39-6.24-1.59c-1.69-3.75-3.24-7.69-4.05-11.71c-2.21-10.98-3.93-22.06-6.01-33.07
			c-0.42-2.2,0.84-2.72,2.21-3.66c5.79-3.96,11.91-7.57,17.13-12.19c7.39-6.53,11.23-15.51,13.9-24.8
			c4.37-15.17,6.72-30.7,6.48-46.52c-0.05-3.51-0.72-7.16-1.86-10.49c-1.84-5.37-6.18-6.72-11.09-3.81
			c-2.06,1.22-3.92,2.79-6.58,4.71c-1.15-3.41-2.37-6.33-3.12-9.36c-2.45-9.88-6.53-18.98-12.54-27.19
			c-0.34-0.47-0.68-0.93-1.05-1.37c-5.17-6.17-8.85-5.68-12.2,1.54c-3.3,7.12-6.92,14.11-10,21.33c-7.55,17.71-7.93,35.5-2.26,54.11
			c4.77,15.63,7.43,31.91,10.86,47.93c0.21,0.98-0.89,3.09-1.72,3.31c-5.45,1.39-10.97,2.68-16.54,3.46
			c-7.14,0.99-16.47-4.45-22.04-12.96c6.1,0.24,6.87-4.54,8.37-8.57c5.77-15.49,8.87-31.38,6.25-47.91
			c-2.43-15.34-10.03-27.63-22.78-36.61c-3.81-2.69-5.92-2.09-8.49,1.94c-12.43,19.5-14.64,40.27-7.57,62.1
			c1.56,4.82,3.68,9.46,5.59,14.16c0.77,1.89,1.65,3.74,2.57,5.8c-3,0.9-4.65,0.15-5.92-2.36c-8.92-17.73-23.8-25.72-43.21-26.12
			c-5.26-0.11-6.94,2.39-4.96,7.28c5.36,13.19,15.7,20.79,28.71,25.22c4.02,1.37,8.29,2.03,12.4,3.17c0.98,0.27,2.24,0.98,2.59,1.81
			c1.36,3.26,2.41,6.66,3.93,11c-2.06-0.8-3.2-1.16-4.25-1.67c-13.36-6.48-27.47-10.28-42.26-11.32c-8.51-0.6-16.82,0.75-24.81,3.87
			c-4.25,1.66-5.27,4.49-1.92,7.51c4.17,3.76,8.69,7.35,13.61,10.02c16.47,8.93,33.75,11.5,51.82,5.08
			c0.65-0.23,1.41-0.33,1.94-0.73c4.59-3.55,8.37-1.92,12.65,1.09c22.67,15.95,40.79,36.05,55.08,59.68
			c3.09,5.11,5.71,10.5,8.7,16.04c-4.24,2.01-7.91,3.93-11.74,5.4c-0.82,0.31-2.7-0.74-3.37-1.68
			c-7.95-11.16-17.03-21.32-27.23-30.43c-14.84-13.26-30.88-24.66-50.22-30.57c-8.79-2.69-17.8-3.96-26.99-3.88
			c-6.09,0.05-7.82,2.2-6.65,8.26c2.03,10.62,8.9,17.76,17.81,22.71c7.22,4,15.13,6.76,22.74,10.04c1.01,0.43,2.1,0.68,3.83,1.22
			c-8.42,2.39-16.04,1.5-23.61-0.39c-3.36-0.84-6.73-1.74-9.97-2.96c-1.38-0.52-2.66-1.78-3.55-3.01c-3.4-4.67-6.7-9.41-9.89-14.22
			c-9.76-14.72-24.01-21.18-41.09-22.14c-5.51-0.31-11.09,0.16-16.6,0.67c-4.48,0.41-5.59,2.35-4.39,6.61
			c4.66,16.6,15.96,26.88,31.59,32.93c11.01,4.26,22.57,5.83,34.27,6.39c2.39,0.12,4,0.88,5.63,2.61
			c16.04,16.97,34.85,29.14,58.3,33.08c14.12,2.38,28.1,1.79,41.86-2.23c2.39-0.7,3.48-0.08,4.56,2.07
			c5.12,10.16,7.83,20.99,8.64,32.25c0.76,10.51,0.58,21.02-2.13,31.35c-2.06,7.86-5.8,10.56-13.61,8.76
			c-12.41-2.86-22.83-9.61-31.84-16.65c2.17-6.78,4.79-12.73,5.91-18.96c2.07-11.45-5-23.89-15.31-28.54
			c-9.19-4.14-16.45-0.11-17.85,9.9c-1.51,10.8,1.83,20.3,7.82,29.07c1.47,2.16,3.16,4.17,5.28,6.95
			c-4.25,0.68-7.82,1.54-11.44,1.78c-5.87,0.39-11.78,0.5-17.66,0.44c-1.17-0.01-2.77-1.08-3.43-2.12
			c-11.72-18.42-27.25-32.51-47.15-41.58c-9.62-4.39-19.98-5.6-30.41-6.11c-4.62-0.23-9.25-0.24-13.87-0.08
			c-5.46,0.19-8.13,3.78-5.69,8.63c2.72,5.41,6.24,10.51,9.97,15.32c7.81,10.07,17.22,18.34,28.88,23.83
			c11.24,5.29,23.21,7.66,35.46,8.84c5.29,0.51,10.6,0.83,15.89,1.34c4.5,0.43,2.89,4.26,3.45,6.74c0.57,2.5-1.37,2.52-3.22,2.8
			c-13.98,2.09-27.43,5.64-38.35,15.36c-10.68,9.5-14.78,22.08-16.08,35.77c-0.46,4.86,2.92,7.85,7.47,6.01
			c9.27-3.74,18.51-7.82,27.15-12.81c10.71-6.19,19.68-14.58,25.77-25.61c1.39-2.52,2.82-5.13,3.55-7.88
			c0.73-2.77,1.99-3.69,4.8-3.63c17.95,0.38,34.67,5.06,50.13,14.18c10.57,6.24,19.95,13.94,26.86,24.15
			c12.5,18.47,11.03,37.58,1.18,56.47c-8.38,16.07-21.45,26.7-39.93,27.83c-9.76,0.6-19.95-0.66-29.52-2.92
			c-28.48-6.72-52.81-21.74-75.13-40.16c-27.71-22.88-48.22-51.18-62.12-84.26c-9.55-22.73-15.38-46.41-17.82-70.98
			c-1.91-19.19-1.79-38.34,0.46-57.45c2.17-18.39,6.29-36.37,12.27-53.94c7.95-23.36,18.96-45.13,33.24-65.23
			c21.1-29.7,47.61-53.31,79.56-70.88c28.41-15.63,58.87-24.94,90.86-29.16c27.28-3.6,54.62-3.88,81.85,1.1
			c36.52,6.68,69.77,20.98,99.83,42.72c27.24,19.7,49.54,44.01,67,72.66c16.09,26.41,26.88,54.91,32.27,85.41
			c4.05,22.91,4.6,45.92,2.54,69.09c-2.83,31.68-11.03,61.83-25.2,90.26c-11.89,23.85-27.36,45.2-46.6,63.76
			c-11.61,11.2-23.78,21.91-38.09,29.29c-20.6,10.63-41.89,19.72-66.05,17.74c-19.02-1.56-33.66-10.63-44.65-25.84
			c-7.92-10.95-12.31-23.33-12.43-36.86c-0.18-20.81,8.92-37.2,25.3-49.58c15.91-12.03,34.39-17.86,53.84-20.43
			c11.99-1.59,24.18-1.7,36.26-2.59c2.91-0.21,4.41,0.67,4.95,3.72c0.5,2.82,1.64,5.52,2.56,8.26c3.48,10.25,10.8,16.03,21.36,17.23
			c6.98,0.8,14.07,0.8,21.12,0.86c4.32,0.04,5.74-2.26,4.18-6.38c-1.71-4.53-3.4-9.09-5.52-13.44
			c-4.01-8.24-10.91-13.03-19.71-14.99c-4.61-1.03-9.32-1.79-14.02-2.17c-2.92-0.24-3.81-1.34-3.64-4.06
			c0.29-4.73,0.64-9.47,0.54-14.2c-0.07-3.26,1.41-4.29,4.29-5.02c11.37-2.87,22.24-6.9,32.08-13.54
			c11.03-7.44,18.49-17.59,23.56-29.68c1.2-2.87,2.27-5.82,3.14-8.81c0.88-3.04-0.59-5.26-3.66-5.23
			c-22.62,0.24-50.61,9.93-62,35.63c-1.86,4.19-3.15,8.68-4.25,13.15c-0.62,2.53-1.69,3.68-4.25,4.11
			C594.42,354.63,589.53,355.79,584.24,356.9z"/>
		<path class="st1" d="M489.02,123.37c0.17,5.14,0.64,9.37,0.4,13.56c-0.78,13.4-2.68,26.64-6.65,39.52
			c-4.04,13.1-11.79,23.12-24.22,29.3c-1.72,0.85-2.77,1.03-3.12-1.27c-2.85-18.52-7.25-36.69-12.65-54.63
			c-3.25-10.8-2.64-21.57,1.01-32.04c3.3-9.44,7.34-18.63,11.05-27.93c0.55-0.05,1.1-0.09,1.64-0.14c2.31,4.39,4.99,8.63,6.82,13.21
			c2.31,5.77,3.91,11.82,5.84,17.75c0.36,1.1,0.77,2.18,1.26,3.23c2.6,5.58,6.92,6.97,12.15,3.84
			C484.42,126.66,486.16,125.33,489.02,123.37z"/>
		<path class="st1" d="M337.68,249.31c5.25,0.61,10.07,0.76,14.71,1.77c13.66,2.99,25.71,9.65,37.03,17.55
			c14.83,10.35,28.36,22.21,39.8,36.31c1.66,2.04,3.09,4.26,4.62,6.39c-17.28,13.2-71.13-0.57-85.66-21.86
			c3.78,0.81,7.3,1.76,10.87,2.3c8.4,1.25,16.6,0.28,24.48-2.94c4.5-1.84,4.89-4.45,0.68-7.05c-4.69-2.9-9.8-5.14-14.67-7.77
			c-7.81-4.21-15.72-8.25-23.31-12.84C342.24,258.75,338.83,255.34,337.68,249.31z"/>
		<path class="st1" d="M485.79,307.25c3.73-6.66,6.87-13.21,10.88-19.19c5.52-8.24,11.48-16.21,17.62-24
			c6.79-8.61,16.69-10.31,25.95-4.82c4.41,2.61,6.7,6.49,6.43,11.79c-0.13,2.62-1.11,3.54-3.82,3.55
			c-6.45,0.02-12.93,0.08-19.34,0.76c-4.75,0.5-9.06,2.67-12.55,6.14c-5.45,5.43-4.27,12.48,2.64,15.82
			c9.2,4.45,22.83,1.63,31.46-6.56c1.08-1.03,2.28-2.08,2.96-3.36c1.85-3.46,4.49-4.16,8.25-3.59c7.15,1.08,14.38,1.66,22.19,2.52
			c-11.51,12.28-24.81,21-40.73,25.34C520.26,316.42,503.25,314.22,485.79,307.25z"/>
		<path class="st1" d="M267.09,337.35c17.65-0.52,34.26,1.83,49.02,11.57c11.78,7.78,21.97,17.28,30.06,29.33
			C316.4,382.12,278.86,362.72,267.09,337.35z"/>
		<path class="st1" d="M396.3,116.79c8.46,6.92,13.6,14.85,16.09,24.34c3.27,12.48,2.41,24.99-0.88,37.34
			c-1.19,4.45-2.67,8.84-4.27,13.16c-1.12,3.03-4.4,3.32-6.05,0.5c-10.71-18.42-16.85-37.8-11.16-59.25
			C391.43,127.6,393.99,122.62,396.3,116.79z"/>
		<path class="st1" d="M540.14,131.2c6.85,11.21,9.69,22.95,8.36,35.48c-1.33,12.56-5.6,24.25-12.21,35.01
			c-0.62,1.01-2.25,1.97-3.38,1.94c-0.95-0.02-2.33-1.35-2.73-2.39c-5.55-14.31-8.6-28.98-5.51-44.37
			C526.71,146.67,531.83,138.28,540.14,131.2z"/>
		<path class="st1" d="M663.35,309.34c-2.11,17.5-29.75,39.72-51.23,41.19C615.23,326.85,639.53,310.23,663.35,309.34z"/>
		<path class="st1" d="M273.8,248.9c9.17-1.15,17.64-0.29,25.9,2.58c11.95,4.15,16.94,10.71,27.76,27.61
			c-2.24-0.18-4.1-0.28-5.94-0.49c-11.79-1.38-23.27-3.81-33.25-10.75C281.59,263.19,276.74,257.1,273.8,248.9z"/>
		<path class="st1" d="M302.81,445.26c2.19-24.5,20.26-37.67,47.42-40.07C341.21,426.77,322.63,436.29,302.81,445.26z"/>
		<path class="st1" d="M647.1,248.35c-4.89,18.36-27.62,27.79-49.89,28.2C604.25,257.43,628.48,243.63,647.1,248.35z"/>
		<path class="st1" d="M375.52,217.75c-13.42,7.64-38.96,3.67-52.63-7.94C331.95,204.3,360.03,209.77,375.52,217.75z"/>
		<path class="st1" d="M642.88,410.21c-18.33,2.97-31.05-5.55-30.99-20.75C626.87,388.75,638.12,395.75,642.88,410.21z"/>
		<path class="st1" d="M610.44,218.88c-11.55,10.11-35.15,15.68-49.76,7.83C572.92,219.8,600.16,213.89,610.44,218.88z"/>
		<path class="st1" d="M394.69,372.17c-7.87-8.73-13.22-17.62-12.17-29.11c0.54-5.84,2.98-6.86,8.06-3.71
			c8.72,5.41,11.65,16.61,7.07,27.29C396.94,368.3,395.95,369.85,394.69,372.17z"/>
		<path class="st1" d="M576.09,353.53c-4.27-7.93-7.19-15.03-5.36-23.22c0.25-1.1,0.75-2.2,1.34-3.17c1.68-2.75,5.58-4.78,7.85-4.04
			c3.17,1.04,3.84,3.9,4.03,6.66C584.56,338.36,580.61,345.49,576.09,353.53z"/>
		<path class="st1" d="M348.15,173.28c12.19,1.09,21.36,6.89,28.07,18.1C364.29,188.33,354.28,183.88,348.15,173.28z"/>
		<path class="st1" d="M560.56,200.82c3.83-8.62,16.18-16.63,25.64-16.65C585.72,190.9,568.56,200.88,560.56,200.82z"/>
		<path class="st1" d="M515.97,288.88c3.09-5.45,15.37-8.33,24.65-5.78C535.62,290.55,521.93,293.76,515.97,288.88z"/>
		<path class="st1" d="M522.81,359.73c-6.46-4.81-7.02-15.3-1.16-21.68C528.08,342.43,528.66,353.37,522.81,359.73z"/>
	</g>
</g>
</svg>
